<svg width="108" height="108" viewBox="0 0 108 108" fill="none" xmlns="http://www.w3.org/2000/svg">
<rect width="108" height="108" rx="24" fill="#CAF3E5"/>
<path d="M54 20.0894C37.566 20.0894 24.1958 33.4595 24.1958 49.8936C24.1958 51.7148 24.1958 65.8035 24.1958 66.0541C24.1958 69.3409 26.8698 72.015 30.1566 72.015H32.4854C33.3056 74.3275 35.5141 75.9889 38.1044 75.9889C41.3913 75.9889 44.0653 73.3148 44.0653 70.028V53.8675C44.0653 50.5807 41.3913 47.9066 38.1044 47.9066C35.5141 47.9066 33.3056 49.568 32.4854 51.8805H30.1566C29.46 51.8805 28.7916 52.0017 28.1697 52.2223V49.8936C28.1697 35.6507 39.7572 24.0633 54 24.0633C68.2429 24.0633 79.8304 35.6507 79.8304 49.8936V52.2223C79.2085 52.0017 78.54 51.8805 77.8434 51.8805H75.5147C74.6945 49.568 72.4859 47.9066 69.8956 47.9066C66.6088 47.9066 63.9348 50.5807 63.9348 53.8675V70.028C63.9348 73.3148 66.6088 75.9889 69.8956 75.9889C70.4971 75.9889 71.0779 75.8985 71.6257 75.732C70.8825 78.1775 68.607 79.9627 65.9217 79.9627H59.6191C58.7989 77.6502 56.5904 75.9889 54 75.9889C50.7132 75.9889 48.0392 78.6629 48.0392 81.9497C48.0392 85.2365 50.7132 87.9105 54 87.9105C56.5904 87.9105 58.7989 86.2492 59.6191 83.9366H65.9217C71.3997 83.9366 75.8565 79.4799 75.8565 74.0019V72.015H77.8434C81.1302 72.015 83.8043 69.3409 83.8043 66.0541C83.8043 65.8072 83.8043 51.7134 83.8043 49.8936C83.8043 33.4595 70.4341 20.0894 54 20.0894ZM36.1175 53.8675C36.1175 52.7719 37.0088 51.8805 38.1044 51.8805C39.2 51.8805 40.0914 52.7719 40.0914 53.8675V70.028C40.0914 71.1236 39.2 72.015 38.1044 72.015C37.0088 72.015 36.1175 71.1236 36.1175 70.028V53.8675ZM30.1566 55.8544H32.1436V68.0411H30.1566C29.061 68.0411 28.1697 67.1497 28.1697 66.0541V57.8414C28.1697 56.7458 29.061 55.8544 30.1566 55.8544ZM54 83.9366C52.9044 83.9366 52.0131 83.0453 52.0131 81.9497C52.0131 80.8541 52.9044 79.9627 54 79.9627C55.0956 79.9627 55.987 80.8541 55.987 81.9497C55.987 83.0453 55.0956 83.9366 54 83.9366ZM71.8826 70.028C71.8826 71.1236 70.9912 72.015 69.8956 72.015C68.8 72.015 67.9087 71.1236 67.9087 70.028V53.8675C67.9087 52.7719 68.8 51.8805 69.8956 51.8805C70.9912 51.8805 71.8826 52.7719 71.8826 53.8675V70.028ZM79.8304 66.0541C79.8304 67.1497 78.939 68.0411 77.8434 68.0411H75.8565V55.8544H77.8434C78.939 55.8544 79.8304 56.7458 79.8304 57.8414V66.0541Z" fill="#70908B"/>
</svg>
