<svg width="109" height="108" viewBox="0 0 109 108" fill="none" xmlns="http://www.w3.org/2000/svg">
<rect x="0.65564" y="0.15564" width="107.689" height="107.689" rx="24" fill="#FFF4E7"/>
<path d="M87.6585 34.7946L61.2961 20.3187C60.9 20.1013 60.4197 20.1013 60.0236 20.3187L50.0871 25.7747C49.8774 25.83 49.6817 25.9353 49.5196 26.0866L33.6617 34.7946C33.2388 35.0265 32.9759 35.4706 32.9759 35.9534V53.4613C30.3008 54.2979 27.8494 55.7733 25.811 57.8121C20.4981 63.1246 19.1435 71.2273 22.4403 77.9744C22.7605 78.6302 23.5522 78.9024 24.2081 78.5817C24.8644 78.261 25.1361 77.4693 24.8159 76.8134C22.0148 71.0806 23.1659 64.1962 27.6805 59.6816C30.5038 56.8583 34.2572 55.3033 38.2496 55.3033C42.2421 55.3033 45.9955 56.8583 48.8188 59.6816C51.6415 62.5044 53.1965 66.2577 53.1965 70.2502C53.1965 74.2427 51.6415 77.9961 48.8182 80.8193C44.3037 85.3339 37.4192 86.485 31.6864 83.6839C31.0305 83.3633 30.2389 83.6354 29.9187 84.2913C29.598 84.9476 29.8696 85.7393 30.526 86.0595C32.9837 87.2607 35.6205 87.8443 38.2383 87.8443C42.805 87.8437 47.3108 86.0662 50.6882 82.6888C52.237 81.14 53.4609 79.3532 54.3269 77.4109L60.0236 80.5389C60.2219 80.6479 60.4409 80.7021 60.6599 80.7021C60.8788 80.7021 61.0983 80.6479 61.2961 80.5389L87.6585 66.0636C88.0815 65.8312 88.3443 65.387 88.3443 64.9047V55.717C88.3443 54.9868 87.7525 54.395 87.0223 54.395C86.292 54.395 85.7002 54.9868 85.7002 55.717V64.1223L61.986 77.144V51.2091L69.8124 46.9114V53.7241C69.8124 54.192 70.0593 54.6248 70.4616 54.8623C70.6692 54.9847 70.9016 55.0462 71.1345 55.0462C71.3534 55.0462 71.5729 54.9919 71.7717 54.8825L77.4209 51.7731C77.8433 51.5407 78.1052 51.0971 78.1052 50.6152V42.3576L85.7002 38.1875V45.1411C85.7002 45.8714 86.292 46.4632 87.0223 46.4632C87.7525 46.4632 88.3443 45.8714 88.3443 45.1411V35.9534C88.3443 35.4711 88.0815 35.0265 87.6585 34.7946ZM60.6599 22.9855L84.2754 35.9534L76.826 40.044L53.2104 27.0761L60.6599 22.9855ZM60.6599 48.9209L37.0443 35.9534L44.7669 31.7126L68.383 44.68L60.6599 48.9209ZM71.1293 43.172L47.5138 30.2046L50.4636 28.5846L74.0796 41.552L71.1293 43.172ZM50.6882 57.8121C47.3655 54.4895 42.9481 52.6598 38.2496 52.6598C37.3609 52.6598 36.4829 52.7253 35.62 52.8539V38.1875L59.3425 51.2138V77.1486L55.225 74.8877C55.6304 73.3952 55.8401 71.8387 55.8401 70.2502C55.8401 65.5518 54.0104 61.1343 50.6882 57.8121ZM75.4616 49.8339L72.4565 51.488V45.4598L75.4616 43.8098V49.8339Z" fill="#70908B"/>
<path d="M87.0222 49.1006C86.6747 49.1006 86.3333 49.2421 86.0875 49.4879C85.8417 49.7337 85.7002 50.0746 85.7002 50.4226C85.7002 50.7702 85.8417 51.111 86.0875 51.3568C86.3333 51.6032 86.6747 51.7442 87.0222 51.7442C87.3698 51.7442 87.7112 51.6032 87.957 51.3568C88.2028 51.111 88.3443 50.7702 88.3443 50.4226C88.3443 50.0746 88.2028 49.7337 87.957 49.4879C87.7112 49.2421 87.3698 49.1006 87.0222 49.1006Z" fill="#70908B"/>
<path d="M33.8043 71.5723C34.1425 71.5723 34.4813 71.4432 34.739 71.1855C35.2554 70.6691 35.2554 69.8319 34.739 69.3155L33.8234 68.3994H41.6369C43.5321 68.3994 45.0742 69.9414 45.0742 71.8367C45.0742 73.732 43.5321 75.274 41.6369 75.274H37.0071C36.2769 75.274 35.6851 75.8658 35.6851 76.5961C35.6851 77.3258 36.2769 77.9176 37.0071 77.9176H41.6369C44.99 77.9176 47.7183 75.1898 47.7183 71.8367C47.7183 68.4836 44.99 65.7558 41.6369 65.7558H33.8234L34.739 64.8397C35.2554 64.3232 35.2554 63.4861 34.739 62.9697C34.2231 62.4538 33.386 62.4538 32.8695 62.9697L29.6966 66.1426C29.1807 66.659 29.1807 67.4962 29.6966 68.0126L32.8695 71.185C33.1277 71.4432 33.466 71.5723 33.8043 71.5723Z" fill="#70908B"/>
<path d="M26.7468 83.078C26.3709 83.078 25.9975 82.9179 25.7367 82.6076L25.7341 82.6045C25.2642 82.0457 25.3365 81.2122 25.8952 80.7422C26.454 80.2718 27.288 80.3441 27.758 80.9028C28.2274 81.4621 28.1567 82.2972 27.5979 82.7671C27.3495 82.9758 27.0474 83.078 26.7468 83.078Z" fill="#70908B"/>
</svg>
