<svg width="40" height="40" viewBox="0 0 40 40" fill="none" xmlns="http://www.w3.org/2000/svg">
<rect y="40" width="40" height="40" rx="20" transform="rotate(-90 0 40)" fill="#F9D9DA"/>
<path fill-rule="evenodd" clip-rule="evenodd" d="M24.0209 19.9998C24.0209 20.1183 23.9738 20.2319 23.89 20.3157C23.8062 20.3995 23.6926 20.4466 23.5741 20.4466L15.5315 20.4466C15.413 20.4466 15.2993 20.3995 15.2155 20.3157C15.1317 20.2319 15.0847 20.1183 15.0847 19.9998C15.0847 19.8813 15.1317 19.7676 15.2155 19.6838C15.2993 19.6001 15.413 19.553 15.5315 19.553L23.5741 19.553C23.6926 19.553 23.8062 19.6001 23.89 19.6838C23.9738 19.7676 24.0209 19.8813 24.0209 19.9998Z" fill="#07484A"/>
<path fill-rule="evenodd" clip-rule="evenodd" d="M24.784 19.6836C24.8256 19.7251 24.8586 19.7744 24.8812 19.8287C24.9037 19.883 24.9153 19.9412 24.9153 19.9999C24.9153 20.0587 24.9037 20.1169 24.8812 20.1712C24.8586 20.2255 24.8256 20.2748 24.784 20.3163L22.1032 22.9971C22.0193 23.081 21.9055 23.1282 21.7868 23.1282C21.6682 23.1282 21.5544 23.081 21.4705 22.9971C21.3866 22.9132 21.3394 22.7995 21.3394 22.6808C21.3394 22.5622 21.3866 22.4484 21.4705 22.3645L23.8359 19.9999L21.4705 17.6354C21.3866 17.5515 21.3394 17.4377 21.3394 17.3191C21.3394 17.2004 21.3866 17.0866 21.4705 17.0027C21.5544 16.9188 21.6682 16.8717 21.7868 16.8717C21.9055 16.8717 22.0193 16.9188 22.1032 17.0027L24.784 19.6836Z" fill="#07484A"/>
</svg>
