<svg width="40" height="40" viewBox="0 0 40 40" fill="none" xmlns="http://www.w3.org/2000/svg">
<rect x="40" width="40" height="40" rx="20" transform="rotate(90 40 0)" fill="#E0EFF6"/>
<path fill-rule="evenodd" clip-rule="evenodd" d="M15.9791 20.0002C15.9791 19.8817 16.0262 19.7681 16.11 19.6843C16.1938 19.6005 16.3074 19.5534 16.4259 19.5534L24.4685 19.5534C24.587 19.5534 24.7007 19.6005 24.7845 19.6843C24.8683 19.7681 24.9153 19.8817 24.9153 20.0002C24.9153 20.1187 24.8683 20.2324 24.7845 20.3162C24.7007 20.3999 24.587 20.447 24.4685 20.447L16.4259 20.447C16.3074 20.447 16.1938 20.3999 16.11 20.3162C16.0262 20.2324 15.9791 20.1187 15.9791 20.0002Z" fill="#07484A"/>
<path fill-rule="evenodd" clip-rule="evenodd" d="M15.216 20.3164C15.1744 20.2749 15.1414 20.2256 15.1188 20.1713C15.0963 20.117 15.0847 20.0588 15.0847 20.0001C15.0847 19.9413 15.0963 19.8831 15.1188 19.8288C15.1414 19.7745 15.1744 19.7252 15.216 19.6837L17.8968 17.0029C17.9807 16.919 18.0945 16.8718 18.2132 16.8718C18.3318 16.8718 18.4456 16.919 18.5295 17.0029C18.6134 17.0868 18.6606 17.2005 18.6606 17.3192C18.6606 17.4378 18.6134 17.5516 18.5295 17.6355L16.1641 20.0001L18.5295 22.3646C18.6134 22.4485 18.6606 22.5623 18.6606 22.6809C18.6606 22.7996 18.6134 22.9134 18.5295 22.9973C18.4456 23.0812 18.3318 23.1283 18.2132 23.1283C18.0945 23.1283 17.9807 23.0812 17.8968 22.9973L15.216 20.3164Z" fill="#07484A"/>
</svg>
