<svg width="21" height="13" viewBox="0 0 21 13" fill="none" xmlns="http://www.w3.org/2000/svg">
<path fill-rule="evenodd" clip-rule="evenodd" d="M13.5553 12.7273C13.4689 12.641 13.4003 12.5386 13.3535 12.4258C13.3067 12.313 13.2826 12.1921 13.2826 12.07C13.2826 11.9479 13.3067 11.8269 13.3535 11.7142C13.4003 11.6014 13.4689 11.4989 13.5553 11.4127L18.4701 6.49976L13.5553 1.58683C13.381 1.4125 13.2831 1.17607 13.2831 0.929542C13.2831 0.683012 13.381 0.446579 13.5553 0.272256C13.7297 0.0979328 13.9661 -2.98767e-08 14.2126 -4.06528e-08C14.4592 -5.1429e-08 14.6956 0.0979328 14.8699 0.272256L20.4401 5.84247C20.5266 5.92871 20.5952 6.03116 20.642 6.14394C20.6888 6.25673 20.7129 6.37764 20.7129 6.49976C20.7129 6.62187 20.6888 6.74278 20.642 6.85557C20.5952 6.96836 20.5266 7.0708 20.4401 7.15704L14.8699 12.7273C14.7837 12.8137 14.6812 12.8823 14.5684 12.9291C14.4556 12.9759 14.3347 13 14.2126 13C14.0905 13 13.9696 12.9759 13.8568 12.9291C13.744 12.8823 13.6416 12.8137 13.5553 12.7273Z" fill="white"/>
<path fill-rule="evenodd" clip-rule="evenodd" d="M0.287109 6.49985C0.287109 6.25363 0.38492 6.0175 0.559023 5.8434C0.733126 5.66929 0.96926 5.57148 1.21548 5.57148L17.9261 5.57148C18.1723 5.57148 18.4085 5.66929 18.5826 5.8434C18.7567 6.0175 18.8545 6.25363 18.8545 6.49985C18.8545 6.74607 18.7567 6.98221 18.5826 7.15631C18.4085 7.33041 18.1723 7.42822 17.9261 7.42822L1.21548 7.42822C0.96926 7.42822 0.733126 7.33041 0.559023 7.15631C0.38492 6.98221 0.287109 6.74607 0.287109 6.49985Z" fill="white"/>
</svg>
